<svg height="512pt" viewBox="0 0 512 512.00056" width="512pt" xmlns="http://www.w3.org/2000/svg"><path d="m440.292969 71.703125c6.109375 6.105469 22.226562 3.644531 35.566406-9.699219 13.855469-17.160156 25.664063-35.875 35.1875-55.769531 1.304687-2.828125 1.109375-4.90625.367187-5.640625-.542968-.433594-1.230468-.6445312-1.921874-.5859375-1.292969.0507813-2.5625.3749995-3.722657.9492185-19.894531 9.527344-38.613281 21.339844-55.777343 35.199219-13.328126 13.320312-15.8125 29.429688-9.699219 35.546875zm0 0"/><path d="m237.722656 146.285156-.007812-73.140625h-76.636719l-36.570313 73.140625zm0 0"/><path d="m104.0625 146.285156 36.574219-73.140625h-25.273438l-36.570312 73.140625zm0 0"/><path d="m164.570312 512c5.050782-.003906 9.140626-4.09375 9.144532-9.140625v-228.574219c0-15.148437-12.28125-27.425781-27.429688-27.425781-15.148437 0-27.425781 12.277344-27.425781 27.425781v228.574219c.003906 5.046875 4.09375 9.136719 9.140625 9.140625zm-18.285156-237.714844c5.050782 0 9.144532 4.09375 9.144532 9.144532 0 5.050781-4.09375 9.140624-9.144532 9.140624-5.046875 0-9.140625-4.089843-9.140625-9.140624 0-5.050782 4.09375-9.144532 9.140625-9.144532zm0 36.574219c5.050782 0 9.144532 4.089844 9.144532 9.140625s-4.09375 9.144531-9.144532 9.144531c-5.046875 0-9.140625-4.09375-9.140625-9.144531s4.09375-9.140625 9.140625-9.140625zm0 0"/><path d="m94.921875 73.144531h-40.0625v73.140625h3.492187zm0 0"/><path d="m270.261719 314.988281c7.171875-11.433593 12.75-23.796875 16.578125-36.742187-.515625-.097656-1.035156-.070313-1.542969-.214844-2.972656-.871094-5.675781-2.484375-7.851563-4.691406l-5.238281 5.242187c-9.808593 9.878907-10.644531 25.539063-1.945312 36.40625zm0 0"/><path d="m275.792969 197.421875 14.546875 63.035156 52.984375-52.988281-38.785157-38.789062zm41.671875 10.046875c2.613281 2.613281 3.394531 6.546875 1.980468 9.960938-1.414062 3.417968-4.75 5.644531-8.445312 5.644531-3.699219 0-7.035156-2.226563-8.449219-5.644531-1.414062-3.414063-.632812-7.347657 1.984375-9.960938 3.570313-3.570312 9.359375-3.570312 12.929688 0zm0 0"/><path d="m321.292969 326.734375-24.8125 4.957031-11.285157 11.292969c-.054687.054687-.070312.128906-.125.179687-.050781.054688-.125.070313-.179687.125l-25.550781 25.550782c-.054688.054687-.070313.132812-.125.1875-.054688.054687-.132813.070312-.1875.125l-9.625 9.625v18.285156l111.445312 112.285156c3.621094 3.433594 9.296875 3.421875 12.902344-.019531l25.855469-25.859375c3.566406-3.574219 3.566406-9.355469 0-12.933594l-30.140625-30.980468c-7.046875-7.15625-7.011719-18.652344.078125-25.765626l6.480469-6.476562-38.792969-38.785156c-3.429688-3.429688-5.355469-8.082032-5.355469-12.929688 0-4.851562 1.925781-9.503906 5.355469-12.933594zm-42.246094 70.332031c-5.046875 0-9.140625-4.09375-9.140625-9.144531s4.09375-9.144531 9.140625-9.144531c5.050781 0 9.144531 4.09375 9.144531 9.144531s-4.09375 9.144531-9.144531 9.144531zm0 0"/><path d="m246.347656 252.722656c-24.957031 25.011719-24.957031 65.5 0 90.511719l6.371094 6.367187 12.929688-12.929687-6.371094-6.371094c-17.820313-17.867187-17.820313-46.785156 0-64.648437l10.960937-10.960938-4.84375-21.011718zm0 0"/><path d="m420.902344 116.957031-25.859375-25.859375c-1.710938-1.714844-4.035157-2.675781-6.457031-2.675781-2.421876-.003906-4.746094.960937-6.460938 2.671875l-64.65625 64.65625 38.78125 38.792969 64.652344-64.65625c3.5625-3.574219 3.5625-9.355469 0-12.929688zm0 0"/><path d="m100.570312 376.679688v-102.394532c0-25.246094 20.46875-45.714844 45.714844-45.714844 25.25 0 45.714844 20.46875 45.714844 45.714844v102.480469c11.136719-3.65625 21.78125-8.671875 31.6875-14.9375 3.132812-1.949219 6.195312-4.050781 9.203125-6.253906-31.558594-32.226563-31.324219-83.84375.527344-115.78125l27.125-27.128907-2.570313-11.140624c-1.445312-6.148438.410156-12.605469 4.902344-17.042969l29.695312-29.691407v-81.644531c-.046874-40.378906-32.765624-73.097656-73.140624-73.144531h-146.285157c-40.378906.046875-73.097656 32.765625-73.144531 73.144531v164.570313c.0195312 63.171875 40.570312 119.203125 100.570312 138.964844zm-64-230.394532v-73.140625c.011719-10.09375 8.191407-18.273437 18.289063-18.285156h182.855469c10.09375.011719 18.273437 8.191406 18.285156 18.285156v73.140625c-.011719 10.09375-8.191406 18.273438-18.285156 18.285156h-182.855469c-10.097656-.011718-18.277344-8.191406-18.289063-18.285156zm0 0"/></svg>