<?xml version="1.0" encoding="iso-8859-1"?>
<!-- Generator: Adobe Illustrator 19.0.0, SVG Export Plug-In . SVG Version: 6.00 Build 0)  -->
<svg version="1.1" id="Capa_1" xmlns="http://www.w3.org/2000/svg" xmlns:xlink="http://www.w3.org/1999/xlink" x="0px" y="0px"
	 viewBox="0 0 512.004 512.004" style="enable-background:new 0 0 512.004 512.004;" xml:space="preserve">
<g>
	<g>
		<path d="M256.004,0.002C118.664-0.018,5.786,108.355,0.214,245.582s98.151,254.394,235.04,265.508
			c1.142,0.582,2.402,0.894,3.683,0.912c0.776-0.045,1.542-0.2,2.275-0.458c4.898,0.28,9.824,0.458,14.792,0.458
			c141.385,0,256-114.615,256-256S397.389,0.002,256.004,0.002z M256.004,494.936c-3.148,0-6.269-0.117-9.387-0.237
			c-5.897-24.781-15.099-48.657-27.36-70.985l34.748-6.952c35.851-7.256,61.652-38.73,61.734-75.308v-76.917h90.684
			c-6.411,11.015-13.877,21.38-22.293,30.95c-17.128,21.115-24.699,48.404-20.9,75.325l0.175,1.708
			c0.743,13.945,3.72,27.681,8.817,40.683c5.881,11.368,14.029,21.411,23.942,29.508c1.321,1.227,2.615,2.495,3.925,3.74
			C358.664,477.951,308.045,494.984,256.004,494.936z M236.509,369.51c-2.129-2.181-5.26-3.061-8.213-2.307l-43.267,11.067
			c-8.815,3.152-18.532,2.59-26.925-1.558c-8.003-3.953-13.058-12.116-13.033-21.042v-53.5c-0.015-4.501-1.802-8.815-4.975-12.008
			c-0.443-0.446-0.935-0.84-1.467-1.175l-7.7-4.875c-2.051-1.283-3.439-3.399-3.8-5.792c-0.4-2.507,0.288-5.065,1.892-7.033
			c4.13-4.864,8.85-9.194,14.05-12.892c2.358-1.775,4.717-3.55,7.2-5.717c7.949-6.761,11.013-17.663,7.75-27.575l-3.325-9.783
			c-0.705-1.889-1.006-3.904-0.883-5.917c3.292-29.783,39.592-66.467,39.958-66.833c0.287-0.362,0.544-0.746,0.769-1.15h78.531
			c14.132,0.015,25.585,11.468,25.6,25.6v174.433c-0.062,28.451-20.131,52.933-48.017,58.575l-39.622,7.927
			c-3.395-6.315-6.494-11.88-9.081-16.43l30.561-7.79c2.953-0.753,5.281-3.025,6.105-5.959
			C239.442,374.842,238.638,371.691,236.509,369.51z M138.521,220.769l3.3,9.708c1.074,3.353,0.006,7.022-2.7,9.275
			c-2.208,1.933-4.258,3.458-6.308,5c-6.223,4.47-11.876,9.683-16.833,15.525c-4.792,5.764-6.872,13.312-5.708,20.717
			c1.149,7.234,5.353,13.624,11.542,17.542l6.192,3.925v53.208c-0.047,15.397,8.667,29.48,22.467,36.308
			c7.161,3.563,15.051,5.417,23.05,5.417c3.807-0.049,7.596-0.538,11.291-1.459c2.744,4.751,5.684,9.984,8.709,15.524l-29.25,5.851
			c-15.135,3.003-30.715-2.375-40.775-14.075l-19.35-22.583c-6.627-7.737-10.271-17.588-10.275-27.775V167.019
			c0.015-14.132,11.468-25.585,25.6-25.6h52.306c-12.375,14.534-32.181,41.248-34.931,66.158
			C136.453,212.044,137.025,216.542,138.521,220.769z M315.738,196.269v-29.25c-0.028-23.553-19.114-42.639-42.667-42.667h-76.548
			c0.199-1.66,0.923-3.213,2.065-4.433c11.675-12.158,47.158-39.05,124.283-26.167c47.05,6.915,84.358,43.229,92.542,90.075
			c0.848,4.102,1.496,8.26,1.987,12.442H315.738z M418.138,213.336c4.711,0.003,8.53,3.822,8.533,8.533v17.067
			c-0.003,4.711-3.822,8.53-8.533,8.533h-102.4v-34.133H418.138z M413.385,435.556L413.385,435.556
			c-1.854-1.792-3.708-3.584-5.598-5.337c-8.197-6.615-15-14.789-20.017-24.05c-4.302-11.346-6.796-23.297-7.392-35.417
			l-0.175-1.667c-3.257-22.324,2.893-44.998,16.983-62.617c11.67-12.965,21.396-27.555,28.872-43.315
			c10.509-3.402,17.641-13.173,17.678-24.218v-17.067c-0.022-7.316-3.193-14.268-8.703-19.081
			c-0.448-7.517-1.416-14.994-2.897-22.377c-9.891-53.613-52.587-95.119-106.459-103.492
			c-85.192-14.225-125.858,17.067-139.283,31.058c-4.282,4.408-6.795,10.236-7.06,16.375h-59.864
			c-23.553,0.028-42.639,19.114-42.667,42.667v185.858c0.006,14.259,5.107,28.046,14.383,38.875l19.358,22.583
			c14.058,16.406,35.88,23.942,57.067,19.708l34.255-6.853c11.568,20.959,20.713,43.166,27.257,66.193
			C116.725,480.811,28.49,391.237,17.609,278.661C6.728,166.085,76.176,61.271,184.087,27.405
			C291.998-6.462,408.882,39.873,464.279,138.479C519.675,237.084,498.444,361.012,413.385,435.556z"/>
	</g>
</g>
<g>
</g>
<g>
</g>
<g>
</g>
<g>
</g>
<g>
</g>
<g>
</g>
<g>
</g>
<g>
</g>
<g>
</g>
<g>
</g>
<g>
</g>
<g>
</g>
<g>
</g>
<g>
</g>
<g>
</g>
</svg>
