<svg id="Outline" height="512" viewBox="0 0 64 64" width="512" xmlns="http://www.w3.org/2000/svg"><path d="m54 38a1 1 0 0 0 -1 1v3.3a14.94 14.94 0 0 1 -10.45 14.29l-10.55 3.41-10.55-3.41a14.94 14.94 0 0 1 -10.45-14.29v-21.3a1 1 0 0 0 -2 0v1h-3a3 3 0 0 0 -3 3v4a3 3 0 0 0 3 3h3v10.3a16.93 16.93 0 0 0 11.84 16.2l10.86 3.5a.93.93 0 0 0 .6 0l10.85-3.5a16.93 16.93 0 0 0 11.85-16.2v-3.3a1 1 0 0 0 -1-1zm-48-8a1 1 0 0 1 -1-1v-4a1 1 0 0 1 1-1h3v6z"/><path d="m15 29a1 1 0 0 0 -1 1v6a1 1 0 0 0 1 1h34a1 1 0 0 0 1-1v-13a1 1 0 0 0 -1-1h-34a1 1 0 0 0 -1 1v3a1 1 0 0 0 2 0v-2h10.59l8.7 8.71a1 1 0 0 0 1.42 0 1 1 0 0 0 0-1.42l-7.3-7.29h5.66l11 11h-16.66l-6.2-6.21a1 1 0 0 0 -1.42 1.42l4.8 4.79h-10.59v-5a1 1 0 0 0 -1-1zm33-5v10.1l-10.1-10.1z"/><path d="m58 22h-3v-9.95a5 5 0 0 0 -3.68-4.82l-19.06-5.23a.92.92 0 0 0 -.52 0l-19.06 5.23a5 5 0 0 0 -3.68 4.82v4.95a1 1 0 0 0 2 0v-4.95a3 3 0 0 1 2.21-2.89l18.79-5.16 18.79 5.16a3 3 0 0 1 2.21 2.89v22.95a1 1 0 0 0 2 0v-3h3a3 3 0 0 0 3-3v-4a3 3 0 0 0 -3-3zm1 7a1 1 0 0 1 -1 1h-3v-6h3a1 1 0 0 1 1 1z"/><circle cx="16" cy="41" r="1"/><circle cx="32" cy="41" r="1"/><circle cx="20" cy="41" r="1"/><circle cx="24" cy="41" r="1"/><circle cx="28" cy="41" r="1"/><circle cx="36" cy="41" r="1"/><circle cx="40" cy="41" r="1"/><circle cx="44" cy="41" r="1"/><circle cx="48" cy="41" r="1"/><circle cx="16" cy="18" r="1"/><circle cx="32" cy="18" r="1"/><circle cx="20" cy="18" r="1"/><circle cx="24" cy="18" r="1"/><circle cx="28" cy="18" r="1"/><circle cx="36" cy="18" r="1"/><circle cx="40" cy="18" r="1"/><circle cx="44" cy="18" r="1"/><circle cx="48" cy="18" r="1"/></svg>