<svg id="Layer_3" enable-background="new 0 0 64 64" height="512" viewBox="0 0 64 64" width="512" xmlns="http://www.w3.org/2000/svg"><g><path d="m60 9h-9.307l-2.757-7.351c-.146-.39-.519-.649-.936-.649h-8c-.417 0-.79.259-.937.649l-2.756 7.351h-9.307c-1.654 0-3 1.346-3 3v36h-4c-1.654 0-3-1.346-3-3v-10.101c2.279-.465 4-2.484 4-4.899v-15c0-1.103-.897-2-2-2v-4c0-3.86-3.141-7-7-7h-2c0-.294-.129-.573-.354-.763-.224-.19-.521-.271-.811-.223l-6 1c-.481.08-.835.497-.835.986v4c0 .489.354.906.836.986l6 1c.055.01.109.014.164.014.235 0 .465-.083.646-.237.225-.19.354-.469.354-.763h1c1.103 0 2 .897 2 2v3c-1.103 0-2 .897-2 2h-3c-.553 0-1 .448-1 1v3c0 .227.077.447.219.625l3.781 4.726v5.649c0 2.414 1.721 4.434 4 4.899v10.101c0 2.757 2.243 5 5 5h4v4c0 1.391.957 2.554 2.243 2.891l1.808 5.425c.137.409.518.684.949.684h4c.431 0 .812-.275.948-.684l1.772-5.316h16.56l1.772 5.316c.136.409.517.684.948.684h4c.431 0 .812-.275.948-.684l1.808-5.425c1.287-.337 2.244-1.5 2.244-2.891v-42c0-1.654-1.346-3-3-3zm-53-2.181-4-.666v-2.306l4-.667zm3-.819h-1v-2h2c2.757 0 5 2.243 5 5v4h-2v-3c0-2.206-1.794-4-4-4zm8 9v14h-6v-14zm-10 3.649v-1.649h2v4.149zm4.184 12.351h5.631c-.414 1.161-1.514 2-2.816 2s-2.401-.839-2.815-2zm27.509-28h6.613l2.25 6h-11.113zm-8.414 58h-2.559l-1.334-4h5.226zm26 0h-2.559l-1.334-4h5.226zm3.721-7c0 .551-.448 1-1 1h-34c-.552 0-1-.449-1-1v-4h2.142c.447 1.72 1.999 3 3.858 3 2.206 0 4-1.794 4-4s-1.794-4-4-4c-1.859 0-3.411 1.28-3.858 3h-2.142v-36c0-.551.448-1 1-1h34c.552 0 1 .449 1 1zm-31.722-6c.347-.595.985-1 1.722-1 1.103 0 2 .897 2 2s-.897 2-2 2c-.737 0-1.375-.405-1.722-1h1.722v-2z"/><path d="m28 21h10c.553 0 1-.448 1-1v-6c0-.552-.447-1-1-1h-10c-.553 0-1 .448-1 1v6c0 .552.447 1 1 1zm1-6h8v4h-8z"/><path d="m28 31h10c.553 0 1-.448 1-1v-6c0-.552-.447-1-1-1h-10c-.553 0-1 .448-1 1v6c0 .552.447 1 1 1zm1-6h8v4h-8z"/><path d="m31 35c-2.206 0-4 1.794-4 4s1.794 4 4 4 4-1.794 4-4-1.794-4-4-4zm0 6c-1.103 0-2-.897-2-2s.897-2 2-2 2 .897 2 2-.897 2-2 2z"/><path d="m58 35h-20c-.553 0-1 .448-1 1v16c0 .552.447 1 1 1h20c.553 0 1-.448 1-1v-16c0-.552-.447-1-1-1zm-1 2v2h-18v-2zm-18 6v-2h18v2zm18 2v2h-18v-2zm-18 6v-2h18v2z"/><path d="m52 19c-3.859 0-7 3.14-7 7s3.141 7 7 7 7-3.14 7-7-3.141-7-7-7zm0 12c-2.757 0-5-2.243-5-5s2.243-5 5-5 5 2.243 5 5-2.243 5-5 5z"/><path d="m52 23c-1.654 0-3 1.346-3 3s1.346 3 3 3 3-1.346 3-3-1.346-3-3-3zm0 4c-.552 0-1-.449-1-1s.448-1 1-1 1 .449 1 1-.448 1-1 1z"/><path d="m57 13h2v2h-2z"/><path d="m53 13h2v2h-2z"/><path d="m49 13h2v2h-2z"/><path d="m45 13h2v2h-2z"/><path d="m14 17h2v2h-2z"/></g></svg>